<svg width="30" height="30" viewBox="0 0 30 30" fill="none" xmlns="http://www.w3.org/2000/svg">
<path d="M2.98045 0.980484C2.58259 0.980588 2.19379 1.09935 1.86377 1.32157C1.53375 1.5438 1.27751 1.8594 1.12779 2.22802C0.978078 2.59665 0.941699 3.00155 1.02331 3.39095C1.10492 3.78036 1.3008 4.13658 1.58592 4.41408L12.1719 15L1.58592 25.586C1.39398 25.7702 1.24073 25.991 1.13516 26.2352C1.02959 26.4795 0.973819 26.7424 0.971112 27.0084C0.968405 27.2745 1.01882 27.5385 1.11939 27.7848C1.21997 28.0312 1.3687 28.255 1.55685 28.4431C1.74501 28.6313 1.96882 28.78 2.21518 28.8806C2.46153 28.9812 2.72548 29.0316 2.99156 29.0289C3.25764 29.0262 3.52051 28.9704 3.76476 28.8648C4.00902 28.7593 4.22976 28.606 4.41405 28.4141L15 17.8281L25.5859 28.4141C25.7702 28.606 25.9909 28.7593 26.2352 28.8648C26.4795 28.9704 26.7423 29.0262 27.0084 29.0289C27.2745 29.0316 27.5384 28.9812 27.7848 28.8806C28.0312 28.78 28.255 28.6313 28.4431 28.4432C28.6313 28.255 28.78 28.0312 28.8806 27.7848C28.9812 27.5385 29.0316 27.2745 29.0289 27.0084C29.0262 26.7424 28.9704 26.4795 28.8648 26.2352C28.7592 25.991 28.606 25.7702 28.414 25.586L17.8281 15L28.414 4.41408C28.7031 4.13315 28.9004 3.77147 28.9804 3.37643C29.0603 2.98139 29.019 2.57142 28.8619 2.20025C28.7048 1.82908 28.4393 1.51402 28.1001 1.29636C27.7609 1.07871 27.3638 0.968603 26.9609 0.980484C26.4413 0.995966 25.9482 1.21312 25.5859 1.58595L15 12.1719L4.41405 1.58595C4.22767 1.39436 4.00478 1.24207 3.75855 1.13808C3.51232 1.03409 3.24774 0.980499 2.98045 0.980484Z" fill="white"/>
</svg>
