<svg width="27" height="26" viewBox="0 0 27 26" fill="none" xmlns="http://www.w3.org/2000/svg">
<g clip-path="url(#clip0_58_118)">
<path d="M0.97998 6.71292C0.97998 3.20119 3.8268 0.35437 7.33853 0.35437H20.0556C23.5673 0.35437 26.4142 3.20119 26.4142 6.71292V19.43C26.4142 22.9417 23.5673 25.7886 20.0556 25.7886H7.33853C3.8268 25.7886 0.97998 22.9417 0.97998 19.43V6.71292Z" fill="#3083FC"/>
<path d="M9.00334 10.1661C11.5957 7.6814 15.7987 7.6814 18.3911 10.1661L18.7031 10.4651C18.8327 10.5894 18.8327 10.7908 18.7031 10.915L17.6359 11.938C17.571 12.0001 17.4659 12.0001 17.4011 11.938L16.9719 11.5265C15.1633 9.79309 12.2312 9.79309 10.4227 11.5265L9.96286 11.9672C9.89806 12.0293 9.79298 12.0293 9.72817 11.9672L8.6609 10.9442C8.53128 10.82 8.53128 10.6186 8.6609 10.4943L9.00334 10.1661ZM20.5983 12.2817L21.5481 13.1921C21.6778 13.3163 21.6778 13.5178 21.5481 13.642L17.2652 17.7473C17.1356 17.8714 16.9255 17.8714 16.7958 17.7473H16.7958L13.7559 14.8336C13.7235 14.8026 13.671 14.8026 13.6386 14.8336L10.5988 17.7473C10.4692 17.8714 10.259 17.8714 10.1294 17.7473L5.84623 13.6419C5.71662 13.5177 5.71662 13.3163 5.84623 13.1921L6.79611 12.2816C6.92573 12.1574 7.13588 12.1574 7.2655 12.2816L10.3054 15.1953C10.3378 15.2263 10.3903 15.2263 10.4227 15.1953L13.4625 12.2816C13.5921 12.1574 13.8022 12.1574 13.9319 12.2816C13.9319 12.2816 13.9319 12.2816 13.9319 12.2816L16.9717 15.1953C17.0041 15.2263 17.0568 15.2263 17.089 15.1953L20.1289 12.2817C20.2586 12.1574 20.4688 12.1574 20.5983 12.2817Z" fill="white"/>
</g>
<defs>
<clipPath id="clip0_58_118">
<rect width="25.4342" height="25.4342" fill="white" transform="translate(0.97998 0.354462)"/>
</clipPath>
</defs>
</svg>
